<?xml version="1.0" encoding="utf-8"?>
<!-- Generator: Adobe Illustrator 25.0.0, SVG Export Plug-In . SVG Version: 6.00 Build 0)  -->
<svg version="1.1" xmlns="http://www.w3.org/2000/svg" xmlns:xlink="http://www.w3.org/1999/xlink" x="0px" y="0px"
	 viewBox="0 0 1000 1000" style="enable-background:new 0 0 1000 1000;" xml:space="preserve">
<style type="text/css">
	.st0{fill:#000000;}
</style>
<g id="Your_design">
</g>
<g id="Guides">
	<g>
		<g id="XMLID_1_">
			<path id="XMLID_11066_" class="st0" d="M257.25,477.54h133.68c13.6,0,24.62-11.02,24.62-24.62s-11.02-24.62-24.62-24.62H257.25
				c-13.6,0-24.62,11.02-24.62,24.62S243.65,477.54,257.25,477.54z"/>
			<path id="XMLID_11065_" class="st0" d="M415.55,547.07c0-13.6-11.02-24.62-24.62-24.62H257.25c-13.6,0-24.62,11.02-24.62,24.62
				s11.02,24.62,24.62,24.62h133.68C404.53,571.69,415.55,560.67,415.55,547.07z"/>
		</g>
		<g id="XMLID_11056_">
			<g id="XMLID_11058_">
				<path id="XMLID_11062_" class="st0" d="M408.53,289.23h227.19c13.6,0,24.62-11.02,24.62-24.62S649.31,240,635.72,240H408.53
					c-13.6,0-24.62,11.02-24.62,24.62S394.93,289.23,408.53,289.23z"/>
				<path id="XMLID_11061_" class="st0" d="M301.49,383.39h441.26c13.6,0,24.62-11.02,24.62-24.62s-11.02-24.62-24.62-24.62H301.49
					c-13.6,0-24.62,11.02-24.62,24.62S287.9,383.39,301.49,383.39z"/>
				<path id="XMLID_11060_" class="st0" d="M635.72,710.77H408.53c-13.6,0-24.62,11.02-24.62,24.62c0,13.6,11.02,24.62,24.62,24.62
					h227.19c13.6,0,24.62-11.02,24.62-24.62C660.33,721.79,649.31,710.77,635.72,710.77z"/>
				<path id="XMLID_11059_" class="st0" d="M742.75,616.61H301.49c-13.6,0-24.62,11.02-24.62,24.62s11.02,24.62,24.62,24.62h441.26
					c13.6,0,24.62-11.02,24.62-24.62S756.35,616.61,742.75,616.61z"/>
			</g>
		</g>
	</g>
</g>
</svg>
